<svg xmlns="http://www.w3.org/2000/svg" width="129.984" height="99.168" viewBox="0 0 109.3 83.39" shape-rendering="geometricPrecision" image-rendering="optimizeQuality" fill-rule="evenodd" fill="#fff" xmlns:v="https://vecta.io/nano"><path d="M24.88 69.8c-.5-.75.55-3.6.8-4.56.32-1.2.86-3.83 1.44-4.65l.9 2.92c1.35 3.47 1.8 2.23-.72 4.8-.5.5-.42.47-1.1.88-.6.37-.6.7-1.34.62zm29.92-9.3c.3-.25-.3-.1.44-.2.05-.01.57.01.63 0-.27.46-.82 1.07-1.08.2zm-25.18 5.28c-.8-.92-1.7-4.17-2.05-5.6-.4-1.6.92-4.45 1.28-6.13l4.3.01c.78 2.8.56 3.96-.48 6.6-.63 1.6-2.06 4.2-3.05 5.12zm20.45-2.86c.4.2 1.08 1.18 1.57 1.6.63.53 1.5.9 2.62.83v2.52c-.15 1.1-.33-.28-.34 2.1l-.05 11.5c-1.87.26-6.02-.7-7.7-1.24-4.46-1.4-8.32-3.9-11.38-7.02-.95-.98-3.44-3.72-3.98-5.22l2.75-2.6c.76-.9 1.72-1.9 2.45-2.94.8-1.14 1.3-2.08 1.82-3.56.7-2.05.52-2.63.55-4.8l1.05.03c-.05 1.68-.82 4.5-.85 8.12-.03 3.22-.15 5.47 1.9 7.14 2.05 1.68 4.52 1.7 6.26-.52 1.9-2.44 2.7-5.42 3.32-5.9zm-6.9-2.3c-.5-.68.46-5.4.7-6.5 1.46-.01.62-.18 1.4-.3.17-.03.46 0 .65.01-.12.93-.83 2.65-1.15 3.6-.3.88-.86 2.9-1.6 3.22zm-14.62-7.8c0-.63.1-.74.7-.84 1.13-.2 2.4.02 3.1.9-.83.13-3.14.16-3.8-.05zM80 45.4c-.6-1.05-1.54.63-1.67-2.1-.05-.95-.1-2.53.22-3.4.74.66 2.24 4.6 2.63 5.9a28.15 28.15 0 0 1 1.17 7.41h-4.8c1.5-4.33.75-3.76 1.04-6.73.1-1 .68-.67 1.4-1.07zm-35.84 7.5c.3-2.1 2.74-13.17 3.95-13.5 2.27-.6-1.64 12.9-1.94 13.84-.6.08-.8.1-1.27-.1-.03-.01-.06-.03-.1-.05l-.64-.2zm-4.38.05l-1.75.01c-.28-2.1-2.15-4.04-4.2-4.36-3.38-.52-5.54 1.5-6.77 1.83.26-3.42 1.72-7.23 3.08-9.78C34.7 32.02 44.36 25.86 54.1 26l-.08 18.7c-.35.27-.63.27-.7.8s-.02 1-.13 1.6c-.16.87-.4 1.8-.63 2.68-.4 1.58-1.05 3.44-1.46 5.1-.78 3.2-.67 4.73-2.28 7.58-.75 1.33-3.16 5.84-4.98 4.7-.56-.35-.95-1.3-1.08-2.2-.2-1.37.15-1.7.76-2.53 1.84-2.56 4.52-8.46 4.64-8.62h2.12c.78-.08.35.1.52-.3-.12-.24.22-.27-1.05-.25-.45.01-.9 0-1.36 0 .77-2.62 2.04-5.22 2.47-8.5.6-4.66.5-6.72-3.9-6.8-2.4-.04-4.08 3.97-4.88 6.2-.88 2.43-1.98 6-2.33 8.74zm31.58-10.7l.2.4c.01.03.03.06.04.1.28.74.17.6-.02 1.1l.93-.08c.23-.23.4-.83.54-1.2.4-1.1.3-1 .76-1.1.42.63.18 1.86.2 2.65.01 2.72-.28 1.8-.32 2.3-.04.37-.05.4 0 .46a.96.96 0 0 1-.18.17l-.4.1c.83.35-.53-.48.17.2.33.33.13-.13.7.57-.2.27.02.12-.44.32-.12.05-.24.06-.35.08.27-.16.3-.28.8.13.05.9.08 1.93-.18 2.83a6.39 6.39 0 0 1-.47 1.12c-.3.52-.44.47-.66.77-.18.53.12.44-.52.47-.56.02-.16.04-.17-.16 0-.02.02-.03.03-.03-.78 0-1.58.1-1.97-.13.13.23.08.32 0 .52-.04.01-.1.01-.13.02-.01 0-.05.01-.07.02a.67.67 0 0 0-.46.46c.3 1.08 3.08 3.04 5.8 1.36 1.37-.85.76-1.34 2.87-1.3 1.4.02 2.9-.04 4.3.03.44 4.44-2.25 11.46-4.93 15.2-.9 1.27-2.12 2.86-3.07 3.76-4.4 4.15-10.56 8.03-19.23 8.16l.05-12.47c-.03-1.13-.34-.25-.32-1.83.03-2.77-.33-2.43 2-2.83.04-.87-.28-.3-.72-.72 1.1-1.57 1.77-3.5 2.58-5.3 1.02.25.6.93 2.1 1.92 2.24 1.47 3.5.4 4.7-1.7.45-.78 1.4-1.37 1.47-2.44-.02-.01-.04-.05-.05-.06l-.7-.7c-.46.28-.07.03-.23.27-.1.17.53-.4-.12.2-.01.01-.05.04-.06.05l-.42.1c-.44-.05-.1.3-.18-.12-.66.23-.42.72-1.36.67-.68-.65-.23-1.47-.32-2.4-.02-.08-.15-.53-.13-.63.04-.2-.04-.22.34-.45.1-.18 3-10.94 2.84-12-1-.7-3.2-.58-4.3-.02-.24 1.2-.01 1.87-.5 3.34-.62 1.93-2 8.06-2.4 8.83-.2.22.2.18-.25.2-.83-.01-.5-.12-.7.28l.76.22c-1.28 3.6-1.1 2.8-2.58 5.85l-1.75.02c0-.7-.13-1.56.1-2.2.3 0 .73.03 1 .02.9-.05.5.1.7-.36-.3-.46-.26-.2-1.6-.26.16-1.1.46-2.06.7-3.12l.7-3.08c.34-1.3 1.97-5.62.87-6.1-.03-.01-.06-.03-.1-.04s-.07-.02-.1-.03a4.57 4.57 0 0 0-1.95.05l.13-18.6c3.7-.24 9.3 1.6 12.04 3.06 2.5 1.33 7.17 4.63 8.4 6.74l-1.17 2c-.35.44-1.72.27-2.48.65-.16.83-.8 3.06-.74 3.73zM24.8 72.13c1.97-.98 1.67-1.1 2.83-1.8 1.44-.9 2-1.56 2.78-1.95.6 1.17 1.5 2.1 2.1 3.15.27.1.17.1.4.38 1.58 1.75.96 1.3 3.14 3.18C53.4 90.03 79.8 79.42 82.62 57.26c.55-4.3.02-8.7-1.25-12.5-.55-1.64-1.4-3.6-2.2-4.9-.32-.52-.5-.64-.3-1.34.7-2.55 1.82-2.6 1.85-3.36-1.55-.42-3.36.03-4.74.28-.46-.9-1.03-1.16-1.42-1.6-.67-.77-.83-.82-1.5-1.4-8.48-7.5-20.7-8.95-30.82-4.12-5.13 2.45-9.36 6.58-12.04 11.1-1.9 3.2-3.2 6.83-3.7 10.8-.17 1.37-.9 1.03-2.05 2.27-.43.46-1.65 1.92-1.86 2.56.46-.16 1.56-1.14 1.92-.74.5 1.22-1.63 6.53-2.12 7.82-.97 2.55-1.6 5.06-2.45 7.67-.75 2.3-1.66 5.66-1.9 8.2-.2 2.12-.1 2.93 1.08 4.03.7.65 2.26 1.6 3.64 1.36.14-.53-.2-2.27-.2-3.15.01-1.55.52-4.46.88-6 .32-1.38.2-1.45 1.32-2.07zM5.16 43.8l18.18 2.98.5-2.6-.64-.32c-.33.01-11.1-2.56-11.83-2.84.06-.06-.06-.15.62-.15 2.9 0 9.8.75 12.48 1.04l.92-2.46L4.26 30.3c-.44.72-1.3 3.08-1.54 4 .8.53 4.83 1.7 6.07 2.13l3.05 1.02c.5.15.98.32 1.5.48.57.18 1.17.26 1.56.63-6.07-.37-6.52-.75-13.28-.4-.3.7-1.05 4.2-.9 4.87l4.4.75zm80.06-.06l15.12-3.97 7.07-1.93c-.06-.78-.92-3.66-1.3-4.2-1.9.5-4.18 1.48-6.05 2.12L94 37.98c.18-.4 2-1.34 2.76-1.84l2.78-1.96c.93-.67 4.5-3.32 5.2-4.2-.4-.85-1.74-3.26-1.82-3.88-1 .26-19.76 10.5-20.42 10.87.28.73.78 1.33.98 2.13.56-.1 7.9-3.36 8.86-3.84.83-.4 2.24-1.15 3.08-1.4-.45.67-9.78 6.78-11 7.24l.8 2.62zm7.58-22.38c2.1-.35 2.02 1.4 1.14 2.62-1.57 2.17-6.46 5.5-9.15 6.24-4.22 1.15.55-4 1.7-4.88 1.38-1.08 3.9-3.57 6.3-3.98zm-3.74-2.46c-.02.03-.06.06-.07.08l-5.4 4.76c-.34.4-1.15 1.45-1.58 1.75-.1.4-.4.68-.7 1.1-.75 1.1-1.6 2.32-2.08 3.57-1.1 2.8.48 3.97 3.25 3.64 5.43-.65 18.48-6.88 16.54-13.4-1-3.38-4.36-3.88-7.4-2.7-.66.25-2.22 1.15-2.55 1.2z"/><path d="M86.35 45.1c-.18 1.26-2.8 3.68 2.45 6.28 2.18 1.08 6.27 1.6 8.4.3 3.02-1.87 2.78-4.76 4.58-5.68 2.32-1.18 4.3 1.8 1.8 4.55-.34.37-.42.3-.65.8l5.32-.07c1.2-1.46 1.47-5 .4-7.12-1.58-3.14-4.58-2.72-6.1-2.94-.27.17-2.03.55-2.6.8-4 1.83-3.62 6.2-6.7 6.57-1 .12-2.02-.2-2.54-.7-1.48-1.4 1.07-3.6 1.4-4.3-1.25.17-4.95.9-5.75 1.48zM9.7 21.82c.6.23 3.24 2.8 4.04 3.4l6.52 5.38c.01-.02.05.06.07.1-.9-.25-2.36-1.1-3.3-1.52l-9.7-4.3c-.36.1-.2-.05-.4.23-.43.64-1.83 3.16-1.98 3.86 1.73.6 3.97 1.04 5.77 1.56 3.63 1.04 7.55 2.36 11.04 3.7 1.6.6 3.75 1.65 5.24 2.1.3-.26 1.07-1.53 1.35-1.94l-1.56-1.5c-1.57-1.3-3.28-2.98-4.8-4.4l-5-5.2c-.37-.45-.55-.65-1-1.1l-2.8-3.24c-.48-.5-.58-.83-1.1-1.08l-2.7 3.46.26.44c.01.01.03.04.04.07zm25.32 6.13c-.1-.63-2.1-2.87-2.73-3.76-.86.3-2.5 1.84-3.23 2.38l-3.38-3.42 3.04-2.48c.02-.01.06-.03.07-.07s.05-.05.07-.07l-2.67-3.3c-.93.16-3.02 2.42-3.8 2.75l-2.8-2.87c.43-.67 2.77-2.33 3.65-2.97l.54-.44-2.1-2.7c-.74-1-.5-.8-.98-.74-.1.17-3.9 3-4.74 3.82-.9.88-2.12 1.82-2.64 2.64.55.74 12.4 10.53 14.02 12.03.4.38 3 2.64 3.35 2.77.45-.34.66-.58.98-.94.4-.44 2.76-2.5 3.38-2.62zm23.14-7.27c.72 1.2-.42 1.6 1.56 1.7.22-.47 2.03-10.82 2.05-11.5l-4.24-.47-.28 3.92.96.1c.06.65-.2 3.52-.85 3.68-1.35-.2-1.3-3.04-1.35-4.27-.1-2.37-.02-7.72 2.25-8.96 1.9-1.05 3.22 1.17 3.75 1.54.38-3.78 1.87-4.8-1.24-6-4-1.53-7.06 1.44-7.86 6.07-.56 3.23-.14 7.47.52 10.6.53 2.5 2.22 8.18 4.74 3.6zm8-5.4c.24-.92 2.68-6.1 3.2-6.7l-1.6 7.1-1.6-.4zm-5.62 7.2l2.34.48 1.66-4.02c.7.08 1.7.3 2.17.65l-1.12 4.07 2.42.9c1-1.38 5.6-19.04 5.34-21.48-1.22-.32-2.83-.95-4.06-1.05l-4.76 9.87c-.73 1.74-3.92 9.17-4 10.58zM37.9 26.46c.97-.67 1.44-.9 1.56-2.56.2-3.18-1.45-7.4-3.7-9-2.07-1.47-4.98-.94-6.22-2.32-.8-.88-.86-2.2.27-2.8 1.2-.6 2.54.18 3.53.5-.42-1.04-1.02-2.04-1.5-3.03-1.2-2.52-.57-1.3-2.87-1.76-.67.4-1.74.2-3.15 1.5-2.75 2.5-.72 7.2 2.47 9.35 2.13 1.44 5.35 1.16 6.74 2.6.54.55 1.66 2.4.7 3.37-.9.92-2.8-.1-3.76-.37.12.32 2.98 4.26 3.5 4.44.68.22 1.72.18 2.43.1zM74.92 8.42l2.93 1.2-8.5 15.5 1.08.6c.42.22.66.38 1.15.52.36-.88 7.18-11 8.42-12.9.43-.65.8-1.34 1.27-1.9.62.13 2.26 1.27 2.9 1.65.4-.95 2.4-2.93 2.68-3.8-.47-.15-7.26-4.36-10.06-4.92L74.9 8.43zM32.94 4l1.77 4.06 3.03-.96 6.17 16.42 2.35-.58L41.53 6.2c.76-.44 2.24-.54 3.18-.7.05-.88-.63-3.24-.8-4.3C42 1.06 34.83 3.3 32.94 4zM0 51.35c1.93-.35 21.32.56 22.97.14l.14-3-.86-.07L.23 46.04 0 51.35zm80.27-26.28c.5-.6 1-.95 1.53-1.53l2.95-3.1.76-.82c.4-.46.37-.5.8-.72.1-.43.6-.67 1.27-1.4l4.18-4.47c-.5-.56-2.56-2.17-3.26-2.5l-14.26 17.4c.54.46 1.3 1.1 1.9 1.43.73-.53 3.27-3.42 4.12-4.3zM45.87.8l3.63 21.55 2.46-.24L50.08.44zm17.8 52.24c-.38.23-.3.25-.34.45-.02.1.1.55.13.63l.32-.28c.03.02.07.03.08.07.01.05.06.06.08.07.68.47 1.03.16 2.13.27l-.93 1.58c.1.43-.26.07.18.12l.42-.1c.01-.01.05-.03.06-.05.65-.6.01-.01.12-.2.16-.24-.24.01.23-.27l.7.7c.01.01.03.05.05.06.3-.28.34-.48.55-.93.2-.4.28-.66.55-.95l1.3.02a.64.64 0 0 1 .46-.46c.02-.01.06-.01.07-.02.02-.01.1-.01.13-.02.08-.2.13-.3 0-.52.4.24 1.2.13 1.97.13-.01-.01-.04.01-.03.03.01.2-.4.18.17.16.64-.02.34.06.52-.47l-1.72.02c-1.28-.05-2.65-2.25-.25-3.3 1.04-.46 2.13-1.62 3.3-1.44-.5-.4-.52-.3-.8-.13.1-.02.23-.03.35-.08.46-.2.25-.04.44-.32-.56-.7-.36-.24-.7-.57-.7-.7.66.13-.17-.2l.4-.1c.03-.02.15-.13.18-.17-.05-.05-.04-.1 0-.46-.6.16-1.65.84-2.07.56-.43-.6.7-2.43.9-3.2l-.93.08c.2-.5.3-.35.02-1.1-.01-.03-.03-.06-.04-.1l-.2-.4c-.48.63-.78 2.2-1.07 3.04-.32.93-.58 2.14-1.2 2.74-.5.5-.34.6-1 .98-.5.3-.8.44-.66 1.2.3 1.83.02 1.37-.6 2.92-1.17.02-1.42-.06-2.58.08-.4.05-.3.5-.53-.13zM69.6 63.9c1.14-.03 1.3.83 1.26 1.97-.03 1.1-.2 1.9-1.26 1.93v-3.9zm-1.54 5.18c2.76.37 4.34-.4 4.38-3.2.05-2.92-1.48-3.7-4.38-3.23v6.43zm-4.84-5.14h1.23l.07 5.14 1.47.04.08-5.16 1.3-.02-.01-1.35h-4.1zm-3.32 5.14l3.56.04.03-1.33-2.07-.02-.01-5.15-1.5-.01zm13.66.1c.53-.8.3-1.67-.64-1.4-.7.2-.8 1.57.64 1.4z"/></svg>